<svg xmlns="http://www.w3.org/2000/svg" xmlns:xlink="http://www.w3.org/1999/xlink" width="19.999922505944767" height="19.54088713543888" viewBox="389.99912995220706 796.2295272169781 19.999922505944767 19.54088713543888"><g transform="matrix(1,0,0,1,387.609375,793.2296142578125)"><g transform="matrix(1,0,0,1,2,3)"><path d="M 5.543499946594238 16.9517993927002 C 6.257500171661377 16.9517993927002 6.838500022888184 17.53179931640625 6.838500022888184 18.24580001831055 C 6.838500022888184 18.95980072021484 6.257500171661377 19.54080009460449 5.543499946594238 19.54080009460449 C 4.829500198364258 19.54080009460449 4.249499797821045 18.95980072021484 4.249499797821045 18.24580001831055 C 4.249499797821045 17.53179931640625 4.829500198364258 16.9517993927002 5.543499946594238 16.9517993927002 Z M 16.82379913330078 16.9517993927002 C 17.53879928588867 16.9517993927002 18.11980056762695 17.53179931640625 18.11980056762695 18.24580001831055 C 18.11980056762695 18.95980072021484 17.53879928588867 19.54080009460449 16.82379913330078 19.54080009460449 C 16.10980033874512 19.54080009460449 15.52980041503906 18.95980072021484 15.52980041503906 18.24580001831055 C 15.52980041503906 17.53179931640625 16.10980033874512 16.9517993927002 16.82379913330078 16.9517993927002 Z M 1.267699956893921 0.009399999864399433 L 3.347700119018555 0.3693999946117401 C 3.682699918746948 0.4284000098705292 3.937700033187866 0.7063999772071838 3.966700077056885 1.04639995098114 L 4.201700210571289 3.847399950027466 L 5.075550079345703 3.847779989242554 C 5.21815013885498 3.847840070724487 5.359230041503906 3.847899913787842 5.498819828033447 3.847970008850098 L 7.103119850158691 3.848730087280273 C 7.231009960174561 3.848789930343628 7.357460021972656 3.848860025405884 7.482490062713623 3.848920106887817 L 9.253879547119141 3.849889993667603 C 9.365169525146484 3.849960088729858 9.475119590759277 3.850019931793213 9.583749771118164 3.850090026855469 L 10.82509994506836 3.850879907608032 C 10.92339992523193 3.850950002670288 11.02050018310547 3.851010084152222 11.11639976501465 3.851079940795898 L 12.20820045471191 3.851880073547363 C 12.29440021514893 3.85194993019104 12.3794002532959 3.852020025253296 12.46329975128174 3.852089881896973 L 13.41520023345947 3.852910041809082 C 13.49009990692139 3.852969884872437 13.56389999389648 3.853039979934692 13.63659954071045 3.853110074996948 L 14.26229953765869 3.853729963302612 C 14.32859992980957 3.853800058364868 14.39400005340576 3.853869915008545 14.45829963684082 3.853940010070801 L 15.18290042877197 3.854779958724976 C 15.23939990997314 3.854850053787231 15.29500007629395 3.854919910430908 15.34959983825684 3.855000019073486 L 15.96140003204346 3.855849981307983 C 16.0088005065918 3.855920076370239 16.05540084838867 3.855989933013916 16.10110092163086 3.856060028076172 L 16.48990058898926 3.856709957122803 C 16.53059959411621 3.856790065765381 16.57060050964355 3.856859922409058 16.60969924926758 3.856930017471313 L 17.04280090332031 3.857810020446777 C 17.07589912414551 3.857880115509033 17.10829925537109 3.857959985733032 17.13999938964844 3.858030080795288 L 17.40660095214844 3.858700037002563 C 17.43420028686523 3.85876989364624 17.46109962463379 3.858850002288818 17.48740005493164 3.858920097351074 L 17.7731990814209 3.859819889068604 C 17.79459953308105 3.859899997711182 17.81539916992188 3.859970092773438 17.8356990814209 3.860049962997437 L 18.00349998474121 3.860729932785034 C 18.02050018310547 3.860810041427612 18.03709983825684 3.860889911651611 18.0531005859375 3.860960006713867 L 18.22279930114746 3.861890077590942 C 18.23520088195801 3.861959934234619 18.24710083007812 3.862040042877197 18.25860023498535 3.862119913101196 L 18.35110092163086 3.862819910049438 C 18.36020088195801 3.862900018692017 18.36890029907227 3.862979888916016 18.37730026245117 3.863059997558594 L 18.44389915466309 3.863770008087158 C 18.45039939880371 3.863850116729736 18.45649909973145 3.863929986953735 18.46240043640137 3.864010095596313 L 18.50769996643066 3.864720106124878 C 18.51189994812012 3.864799976348877 18.51600074768066 3.864880084991455 18.51980018615723 3.864959955215454 L 18.54840087890625 3.865689992904663 C 18.55109977722168 3.865770101547241 18.55349922180176 3.86584997177124 18.55579948425293 3.865930080413818 L 18.57659912109375 3.866909980773926 C 18.57780075073242 3.866990089416504 18.57900047302246 3.867079973220825 18.58009910583496 3.867160081863403 C 18.58979988098145 3.868069887161255 18.59129905700684 3.868230104446411 18.59269905090332 3.868400096893311 C 19.14970016479492 3.949399948120117 19.63969993591309 4.240399837493896 19.97369956970215 4.688399791717529 C 20.30769920349121 5.13539981842041 20.44770050048828 5.686399936676025 20.36770057678223 6.238399982452393 L 19.41869926452637 12.79640007019043 C 19.23970031738281 14.04440021514893 18.15570068359375 14.98540019989014 16.89570045471191 14.98540019989014 L 5.974699974060059 14.98540019989014 C 4.657700061798096 14.98540019989014 3.542700052261353 13.95740032196045 3.435699939727783 12.64239978790283 L 2.519700050354004 1.748399972915649 L 1.012699961662292 1.488399982452393 C 0.6036999821662903 1.416399955749512 0.330700010061264 1.029399991035461 0.4007000029087067 0.6204000115394592 C 0.4726999998092651 0.2114000022411346 0.8676999807357788 -0.05460000038146973 1.267699956893921 0.009399999864399433 Z M 4.874929904937744 5.347740173339844 L 4.327700138092041 5.347400188446045 L 4.327700138092041 5.347400188446045 L 4.930699825286865 12.51939964294434 C 4.974699974060059 13.0713996887207 5.425700187683105 13.48540019989014 5.976699829101562 13.48540019989014 L 16.89369964599609 13.48540019989014 C 17.41469955444336 13.48540019989014 17.85969924926758 13.09739971160889 17.93370056152344 12.58240032196045 L 18.88369941711426 6.023399829864502 C 18.90570068359375 5.867400169372559 18.86669921875 5.711400032043457 18.77169990539551 5.585400104522705 C 18.67770004272461 5.458399772644043 18.53969955444336 5.376399993896484 18.38369941711426 5.354400157928467 C 18.37649917602539 5.354680061340332 18.35919952392578 5.35492992401123 18.33239936828613 5.355160236358643 L 18.22360038757324 5.355780124664307 C 18.20089912414551 5.355869770050049 18.17580032348633 5.355959892272949 18.14859962463379 5.356040000915527 L 17.58209991455078 5.356900215148926 C 17.53429985046387 5.356939792633057 17.48460006713867 5.356969833374023 17.4330997467041 5.356989860534668 L 16.10110092163086 5.356939792633057 C 16.02680015563965 5.356910228729248 15.95100021362305 5.356880187988281 15.87399959564209 5.356840133666992 L 14.35389995574951 5.35591983795166 C 14.2628002166748 5.355850219726562 14.17070007324219 5.355780124664307 14.07769966125488 5.355710029602051 L 13.21759986877441 5.355020046234131 C 13.11960029602051 5.354939937591553 13.02089977264404 5.354859828948975 12.92150020599365 5.354770183563232 L 12.01039981842041 5.353970050811768 C 11.90750026702881 5.353879928588867 11.80420017242432 5.353789806365967 11.7003002166748 5.353690147399902 L 11.07279968261719 5.353119850158691 C 10.96749973297119 5.353020191192627 10.86190032958984 5.352920055389404 10.75599956512451 5.352819919586182 L 9.798299789428711 5.351930141448975 C 9.691510200500488 5.351830005645752 9.584659576416016 5.351729869842529 9.477809906005859 5.351630210876465 L 8.837169647216797 5.351029872894287 C 8.730549812316895 5.350930213928223 8.624059677124023 5.350840091705322 8.517740249633789 5.3507399559021 L 7.882530212402344 5.350160121917725 C 7.777190208435059 5.350069999694824 7.672160148620605 5.349969863891602 7.567490100860596 5.349880218505859 L 6.636980056762695 5.349080085754395 C 6.535049915313721 5.348989963531494 6.433680057525635 5.348909854888916 6.332910060882568 5.348830223083496 L 5.156990051269531 5.347929954528809 C 5.062089920043945 5.347869873046875 4.968050003051758 5.347799777984619 4.874929904937744 5.347740173339844 Z M 15.28759956359863 7.543700218200684 C 15.70160007476807 7.543700218200684 16.03759956359863 7.879700183868408 16.03759956359863 8.293700218200684 C 16.03759956359863 8.707699775695801 15.70160007476807 9.043700218200684 15.28759956359863 9.043700218200684 L 12.51560020446777 9.043700218200684 C 12.10060024261475 9.043700218200684 11.76560020446777 8.707699775695801 11.76560020446777 8.293700218200684 C 11.76560020446777 7.879700183868408 12.10060024261475 7.543700218200684 12.51560020446777 7.543700218200684 L 15.28759956359863 7.543700218200684 Z" fill="#eac666" fill-rule="evenodd"/></g></g></svg>