<svg xmlns="http://www.w3.org/2000/svg" xmlns:xlink="http://www.w3.org/1999/xlink" width="1788.834168434143" height="281.2320027351379" viewBox="330.10797023773193 -394.4398803710937 1788.834168434143 281.2320027351379"><g><path d="M 288.4140014648438 -147.0420074462891 L 153.4680023193359 -147.0420074462891 L 153.4680023193359 -102.4380111694336 L 234.7380218505859 -102.4380111694336 C 230.2020111083984 -69.552001953125 202.9860076904297 -43.09200286865234 158.3820037841797 -43.09200286865234 C 99.0360107421875 -43.09200286865234 66.15000152587891 -85.42800140380859 66.15000152587891 -133.0560150146484 C 66.15000152587891 -180.6840057373047 100.9260101318359 -221.1300201416016 152.7120056152344 -221.1300201416016 C 193.5360107421875 -221.1300201416016 218.1060028076172 -202.6080017089844 231.3360137939453 -175.3920135498047 L 279.3420104980469 -189 C 262.7100219726562 -233.2260131835938 217.7280120849609 -269.8920288085938 152.3340148925781 -269.8920288085938 C 73.71000671386719 -269.8920288085938 13.60800075531006 -210.5460205078125 13.60800075531006 -132.6780090332031 C 13.60800075531006 -54.43200302124023 73.33200073242188 5.292000293731689 154.6020050048828 5.292000293731689 C 233.9820098876953 5.292000293731689 288.4140014648438 -45.73800277709961 288.4140014648438 -120.5820007324219 L 288.4140014648438 -147.0420074462891 Z M 376.4880065917969 -162.9180145263672 L 376.4880065917969 -191.2680206298828 L 326.5920104980469 -191.2680206298828 L 326.5920104980469 0 L 376.4880065917969 0 L 376.4880065917969 -83.16000366210938 C 376.4880065917969 -134.5680084228516 398.7900085449219 -153.4680023193359 439.614013671875 -147.0420074462891 L 439.614013671875 -193.9140014648438 C 409.7520141601562 -198.072021484375 387.8280029296875 -185.2200012207031 376.4880065917969 -162.9180145263672 Z M 544.3200073242188 5.292000293731689 C 571.1580200195312 5.292000293731689 592.3260498046875 -6.048000335693359 605.9340209960938 -23.43600082397461 L 605.9340209960938 0 L 656.2080078125 0 L 656.2080078125 -191.2680206298828 L 605.9340209960938 -191.2680206298828 L 605.9340209960938 -168.2100067138672 C 592.3260498046875 -185.5980072021484 571.1580200195312 -196.5600128173828 544.3200073242188 -196.5600128173828 C 491.4000244140625 -196.5600128173828 449.8200073242188 -153.8460083007812 449.8200073242188 -95.63401031494141 C 449.8200073242188 -37.79999923706055 491.4000244140625 5.292000293731689 544.3200073242188 5.292000293731689 Z M 553.0140380859375 -39.3120002746582 C 521.6400146484375 -39.3120002746582 499.3380126953125 -62.74800491333008 499.3380126953125 -96.01200103759766 C 499.3380126953125 -128.8980102539062 521.6400146484375 -151.9560089111328 553.0140380859375 -151.9560089111328 C 583.2540283203125 -151.9560089111328 607.446044921875 -128.8980102539062 607.446044921875 -96.01200103759766 C 607.446044921875 -62.74800491333008 583.2540283203125 -39.3120002746582 553.0140380859375 -39.3120002746582 Z M 816.8580322265625 -196.5600128173828 C 789.2640380859375 -196.5600128173828 768.4739990234375 -184.0860137939453 755.2440185546875 -167.0760192871094 L 755.2440185546875 -275.9400024414062 L 705.3480224609375 -275.9400024414062 L 705.3480224609375 0 L 755.2440185546875 0 L 755.2440185546875 -94.5 C 755.2440185546875 -128.1420135498047 773.3880004882812 -150.0660095214844 801.3599853515625 -150.0660095214844 C 828.9540405273438 -150.0660095214844 842.1840209960938 -131.5440063476562 842.1840209960938 -102.4380111694336 L 842.1840209960938 0 L 892.0800170898438 0 L 892.0800170898438 -111.8880004882812 C 892.0800170898438 -162.9180145263672 866.7540283203125 -196.5600128173828 816.8580322265625 -196.5600128173828 Z M 1022.111999511719 5.292000293731689 C 1048.949951171875 5.292000293731689 1070.118041992188 -6.048000335693359 1083.72607421875 -23.43600082397461 L 1083.72607421875 0 L 1134 0 L 1134 -191.2680206298828 L 1083.72607421875 -191.2680206298828 L 1083.72607421875 -168.2100067138672 C 1070.118041992188 -185.5980072021484 1048.949951171875 -196.5600128173828 1022.111999511719 -196.5600128173828 C 969.1920166015625 -196.5600128173828 927.6119995117188 -153.8460083007812 927.6119995117188 -95.63401031494141 C 927.6119995117188 -37.79999923706055 969.1920166015625 5.292000293731689 1022.111999511719 5.292000293731689 Z M 1030.806030273438 -39.3120002746582 C 999.4320068359375 -39.3120002746582 977.1300048828125 -62.74800491333008 977.1300048828125 -96.01200103759766 C 977.1300048828125 -128.8980102539062 999.4320068359375 -151.9560089111328 1030.806030273438 -151.9560089111328 C 1061.046020507812 -151.9560089111328 1085.238037109375 -128.8980102539062 1085.238037109375 -96.01200103759766 C 1085.238037109375 -62.74800491333008 1061.046020507812 -39.3120002746582 1030.806030273438 -39.3120002746582 Z" transform="matrix(1,0,0,1,316.4999694824219,-118.4998779296875)" fill="#000000" fill-rule="evenodd"/><path d="M 1800.414184570312 -264.6000061035156 L 1800.414184570312 -158.0039978027344 L 1679.4541015625 -158.0039978027344 L 1679.4541015625 -264.6000061035156 L 1627.668090820312 -264.6000061035156 L 1627.668090820312 0 L 1679.4541015625 0 L 1679.4541015625 -111.1319961547852 L 1800.414184570312 -111.1319961547852 L 1800.414184570312 0 L 1852.578125 0 L 1852.578125 -264.6000061035156 L 1800.414184570312 -264.6000061035156 Z M 1927.044189453125 -218.1060028076172 C 1943.676147460938 -218.1060028076172 1956.90625 -230.9580078125 1956.90625 -247.5900115966797 C 1956.90625 -263.4660034179688 1943.676147460938 -276.3179931640625 1927.044189453125 -276.3179931640625 C 1910.412231445312 -276.3179931640625 1897.182250976562 -263.4660034179688 1897.182250976562 -247.5900115966797 C 1897.182250976562 -230.9580078125 1910.412231445312 -218.1060028076172 1927.044189453125 -218.1060028076172 Z M 1901.340209960938 0 L 1951.6142578125 0 L 1951.6142578125 -191.2680206298828 L 1901.340209960938 -191.2680206298828 L 1901.340209960938 0 Z M 2001.510131835938 0 L 2051.40625 0 L 2051.40625 -275.9400024414062 L 2001.510131835938 -275.9400024414062 L 2001.510131835938 0 Z M 2100.546142578125 0 L 2150.442138671875 0 L 2150.442138671875 -275.9400024414062 L 2100.546142578125 -275.9400024414062 L 2100.546142578125 0 Z" transform="matrix(1,0,0,1,-31.5,-118.121826171875)" fill="#000000" fill-rule="evenodd"/></g></svg>