<svg xmlns="http://www.w3.org/2000/svg" xmlns:xlink="http://www.w3.org/1999/xlink"
    width="12.764696532428275" height="6.9999999388896015"
    viewBox="617.2352924216539 76.50000000496532 12.764696532428275 6.9999999388896015">
    <g transform="matrix(6.123234262925839e-17,1,-1,6.123234262925839e-17,634.25,68.75)">
        <g transform="matrix(0,-1,1,0,7.75,17.014707565307617)">
            <path
                d="M 0.1809044629335403 0.1809048503637314 C 0.4001823365688324 -0.03837384283542633 0.7433174252510071 -0.05830818042159081 0.9851138591766357 0.1211018115282059 L 1.054389238357544 0.1809048503637314 L 6.382352828979492 5.508588314056396 L 11.71033954620361 0.1809048503637314 C 11.92956352233887 -0.03837384283542633 12.27272796630859 -0.05830818042159081 12.51451683044434 0.1211018115282059 L 12.58377647399902 0.1809048503637314 C 12.80308151245117 0.400182694196701 12.82301139831543 0.7433178424835205 12.64356422424316 0.9851142168045044 L 12.58377647399902 1.054389476776123 L 6.819094657897949 6.819095134735107 C 6.599813938140869 7.038376331329346 6.256682395935059 7.058305263519287 6.014885425567627 6.878900051116943 L 5.945610523223877 6.819095134735107 L 0.1809044629335403 1.054389476776123 C -0.06030150502920151 0.8131860494613647 -0.06030150502920151 0.4221108555793762 0.1809044629335403 0.1809048503637314 Z"
                fill="#eac666" fill-rule="evenodd" />
        </g>
    </g>
</svg>