<svg xmlns="http://www.w3.org/2000/svg" xmlns:xlink="http://www.w3.org/1999/xlink" width="17.94461713556666" height="17.99999999999997" viewBox="1635.499899983406 67.29690551757812 17.94461713556666 17.99999999999997"><g transform="matrix(1,0,0,1,1633.5,65.29690551757812)"><g transform="matrix(1,0,0,1,1.999899983406067,2)"><path d="M 11.21300315856934 0.7321512699127197 C 11.57294940948486 0.7321512699127197 11.86507892608643 1.02428138256073 11.86507892608643 1.384227633476257 C 11.86507892608643 1.744173645973206 11.57294940948486 2.036303758621216 11.21300315856934 2.036303758621216 L 4.89394998550415 2.036303758621216 C 2.713406324386597 2.036303758621216 1.304052710533142 3.535209894180298 1.304052710533142 5.856601715087891 L 1.304052710533142 12.88337516784668 C 1.304052710533142 15.23519706726074 2.679498434066772 16.69584846496582 4.89394998550415 16.69584846496582 L 12.37456798553467 16.69584846496582 C 14.5551118850708 16.69584846496582 15.9644660949707 15.19954967498779 15.9644660949707 12.88337516784668 L 15.9644660949707 6.763422012329102 C 15.9644660949707 6.403475761413574 16.2565975189209 6.111345767974854 16.61654281616211 6.111345767974854 C 16.97648811340332 6.111345767974854 17.26861953735352 6.403475761413574 17.26861953735352 6.763422012329102 L 17.26861953735352 12.88337516784668 C 17.26861953735352 15.94378757476807 15.30195617675781 18 12.37456798553467 18 L 4.89394998550415 18 C 1.966562032699585 18 -9.999994654208422e-05 15.94378757476807 -9.999994654208422e-05 12.88337516784668 L -9.999994654208422e-05 5.856601715087891 C -9.999994654208422e-05 2.791842937469482 1.966562032699585 0.7321512699127197 4.89394998550415 0.7321512699127197 L 11.21300315856934 0.7321512699127197 Z M 13.05220603942871 6.670218467712402 C 13.33738040924072 6.891055107116699 13.38954734802246 7.300559520721436 13.16871166229248 7.584864616394043 L 10.62126636505127 10.87132835388184 C 10.51519584655762 11.00869846343994 10.35869598388672 11.09825134277344 10.18654918670654 11.11911773681641 C 10.01266098022461 11.14259243011475 9.840514183044434 11.09216594696045 9.703143119812012 10.98522567749023 L 7.253075122833252 9.060296058654785 L 5.052534580230713 11.91986751556396 C 4.923858642578125 12.08679866790771 4.730844020843506 12.17461204528809 4.535221099853516 12.17461204528809 C 4.396111011505127 12.17461204528809 4.256132125854492 12.13027000427246 4.13788890838623 12.03984928131104 C 3.85271430015564 11.8198823928833 3.798809051513672 11.41037940979004 4.018776416778564 11.12520408630371 L 6.620995998382568 7.743101119995117 C 6.727066516876221 7.604860782623291 6.884434700012207 7.51530933380127 7.056582450866699 7.493573665618896 C 7.232208728790283 7.470968723297119 7.404356956481934 7.519656658172607 7.540857791900635 7.628335952758789 L 9.992664337158203 9.554134368896484 L 12.13756084442139 6.786723136901855 C 12.35839748382568 6.500679016113281 12.76703262329102 6.447643756866455 13.05220603942871 6.670218467712402 Z M 15.62138748168945 2.753350390564957e-14 C 16.90293312072754 2.753350390564957e-14 17.94451713562012 1.041583061218262 17.94451713562012 2.323130369186401 C 17.94451713562012 3.604677677154541 16.90293312072754 4.647130012512207 15.62138748168945 4.647130012512207 C 14.3407096862793 4.647130012512207 13.29825592041016 3.604677677154541 13.29825592041016 2.323130369186401 C 13.29825592041016 1.041583061218262 14.3407096862793 2.753350390564957e-14 15.62138748168945 2.753350390564957e-14 Z M 15.62138748168945 1.304152488708496 C 15.05973148345947 1.304152488708496 14.60240840911865 1.760606050491333 14.60240840911865 2.323130369186401 C 14.60240840911865 2.884785652160645 15.05973148345947 3.342977523803711 15.62138748168945 3.342977523803711 C 16.18304252624512 3.342977523803711 16.64036560058594 2.884785652160645 16.64036560058594 2.323130369186401 C 16.64036560058594 1.760606050491333 16.18304252624512 1.304152488708496 15.62138748168945 1.304152488708496 Z" transform="matrix(1,0,0,1,0.00009999994654208422,-2.757573696839967e-14)" fill="#eac666" fill-rule="evenodd"/></g></g></svg>